<svg version="1.1" id="Layer_1" xmlns="http://www.w3.org/2000/svg" xmlns:xlink="http://www.w3.org/1999/xlink" x="0px" y="0px"
	 width="100%" viewBox="0 0 192 192" enable-background="new 0 0 192 192" xml:space="preserve">
<path fill="#FEFEFE" opacity="1.000000" stroke="none" 
	d="
M105.000000,193.000000 
	C70.000000,193.000000 35.500004,193.000000 1.000005,193.000000 
	C1.000003,129.000000 1.000003,65.000015 1.000002,1.000013 
	C64.999992,1.000009 128.999985,1.000009 192.999969,1.000004 
	C192.999985,64.999985 192.999985,128.999969 193.000000,192.999969 
	C163.833328,193.000000 134.666672,193.000000 105.000000,193.000000 
M40.524139,160.188553 
	C55.308857,160.188553 70.093575,160.188553 85.142784,160.188553 
	C89.144402,117.905403 93.103195,76.074669 97.070976,34.149055 
	C74.701958,34.149055 52.977501,34.149055 31.239780,34.149055 
	C31.239780,76.271133 31.239780,118.117226 31.239780,160.188599 
	C34.229843,160.188599 36.880325,160.188599 40.524139,160.188553 
M129.500000,33.877949 
	C121.084656,33.877949 112.669312,33.877949 104.212791,33.877949 
	C104.212791,56.410286 104.212791,78.281296 104.212791,100.369476 
	C122.881889,100.369476 141.265686,100.369476 159.788544,100.369476 
	C159.788544,78.106377 159.788544,56.119122 159.788544,33.877888 
	C149.765533,33.877888 140.132767,33.877888 129.500000,33.877949 
M116.507156,106.772346 
	C112.414169,106.772346 108.321182,106.772346 104.295082,106.772346 
	C104.295082,124.950607 104.295082,142.485916 104.295082,159.869141 
	C123.060707,159.869141 141.459991,159.869141 159.803162,159.869141 
	C159.803162,142.020844 159.803162,124.492409 159.803162,106.772278 
	C145.449203,106.772278 131.477570,106.772278 116.507156,106.772346 
z"/>
<path fill="#FF1616" opacity="1.000000" stroke="none" 
	d="
M40.027473,160.188568 
	C36.880325,160.188599 34.229843,160.188599 31.239780,160.188599 
	C31.239780,118.117226 31.239780,76.271133 31.239780,34.149055 
	C52.977501,34.149055 74.701958,34.149055 97.070976,34.149055 
	C93.103195,76.074669 89.144402,117.905403 85.142784,160.188553 
	C70.093575,160.188553 55.308857,160.188553 40.027473,160.188568 
z"/>
<path fill="#02C2CB" opacity="1.000000" stroke="none" 
	d="
M130.000000,33.877918 
	C140.132767,33.877888 149.765533,33.877888 159.788544,33.877888 
	C159.788544,56.119122 159.788544,78.106377 159.788544,100.369476 
	C141.265686,100.369476 122.881889,100.369476 104.212791,100.369476 
	C104.212791,78.281296 104.212791,56.410286 104.212791,33.877949 
	C112.669312,33.877949 121.084656,33.877949 130.000000,33.877918 
z"/>
<path fill="#004AAD" opacity="1.000000" stroke="none" 
	d="
M117.006554,106.772308 
	C131.477570,106.772278 145.449203,106.772278 159.803162,106.772278 
	C159.803162,124.492409 159.803162,142.020844 159.803162,159.869141 
	C141.459991,159.869141 123.060707,159.869141 104.295082,159.869141 
	C104.295082,142.485916 104.295082,124.950607 104.295082,106.772346 
	C108.321182,106.772346 112.414169,106.772346 117.006554,106.772308 
z"/>
</svg>